<svg id="svg" version="1.1" xmlns="http://www.w3.org/2000/svg" xmlns:xlink="http://www.w3.org/1999/xlink" width="400" height="417.3228346456693" viewBox="0, 0, 400,417.3228346456693"><g id="svgg"><path id="path0" d="M209.000 53.485 C 208.560 53.591,208.029 53.840,207.820 54.039 C 207.611 54.237,207.144 54.400,206.781 54.400 C 204.911 54.400,202.348 56.599,201.071 59.300 C 200.681 60.125,200.191 60.800,199.981 60.800 C 199.746 60.800,199.600 66.925,199.600 76.800 C 199.600 91.269,199.662 92.800,200.247 92.800 C 200.696 92.800,200.830 93.044,200.684 93.600 C 200.548 94.120,200.672 94.400,201.037 94.400 C 201.347 94.400,201.600 94.678,201.600 95.017 C 201.600 96.489,205.246 99.130,208.239 99.825 C 210.938 100.453,213.051 100.014,215.546 98.307 C 219.031 95.922,220.000 93.768,220.000 88.402 C 220.000 86.071,220.144 84.842,220.400 85.000 C 220.620 85.136,220.800 84.967,220.800 84.624 C 220.800 84.281,220.620 84.000,220.400 84.000 C 219.784 84.000,219.881 77.310,220.500 77.083 C 220.900 76.937,220.900 76.794,220.500 76.370 C 220.184 76.035,220.000 74.633,220.000 72.553 C 220.000 70.315,220.159 69.192,220.500 69.033 C 220.900 68.847,220.900 68.753,220.500 68.567 C 220.153 68.405,220.001 67.211,220.002 64.667 C 220.004 60.789,219.100 57.200,218.121 57.200 C 217.834 57.200,217.600 56.840,217.600 56.400 C 217.600 55.960,217.420 55.600,217.200 55.600 C 216.980 55.600,216.483 55.285,216.096 54.900 C 214.886 53.698,211.184 52.960,209.000 53.485 M99.200 99.225 C 96.287 99.738,95.200 100.071,95.200 100.447 C 95.200 100.641,94.840 100.800,94.400 100.800 C 93.960 100.800,93.599 100.935,93.599 101.100 C 93.598 101.265,93.059 101.760,92.400 102.200 C 91.741 102.640,91.202 103.225,91.201 103.500 C 91.201 103.775,90.961 104.000,90.669 104.000 C 90.301 104.000,90.195 104.387,90.324 105.264 C 90.465 106.225,90.377 106.477,89.955 106.315 C 89.515 106.147,89.400 106.673,89.398 108.852 C 89.397 110.791,89.544 111.600,89.898 111.600 C 90.174 111.600,90.400 112.035,90.400 112.568 C 90.400 113.631,92.376 115.947,97.634 121.047 C 99.422 122.781,103.649 126.937,107.026 130.281 C 110.404 133.626,113.670 136.616,114.284 136.926 C 117.218 138.406,123.077 137.972,124.495 136.170 C 124.915 135.637,125.478 135.200,125.746 135.200 C 126.707 135.200,128.500 130.432,128.525 127.812 C 128.547 125.469,127.411 121.605,126.700 121.601 C 126.535 121.601,126.400 121.300,126.400 120.933 C 126.400 120.567,126.280 120.387,126.132 120.534 C 125.777 120.890,124.400 119.622,124.400 118.938 C 124.400 118.642,124.130 118.400,123.800 118.400 C 123.470 118.400,123.200 118.252,123.200 118.072 C 123.200 117.631,119.703 114.000,119.279 114.000 C 118.714 114.000,117.160 111.989,117.411 111.582 C 117.541 111.372,117.437 111.200,117.180 111.200 C 116.924 111.200,115.818 110.300,114.724 109.200 C 113.630 108.100,112.569 107.200,112.367 107.200 C 112.165 107.200,112.000 106.930,112.000 106.600 C 112.000 106.270,111.730 106.000,111.400 106.000 C 111.070 106.000,110.800 105.751,110.800 105.447 C 110.800 105.142,110.427 104.796,109.970 104.676 C 109.514 104.557,109.043 104.086,108.924 103.630 C 108.804 103.173,108.458 102.800,108.153 102.800 C 107.849 102.800,107.600 102.530,107.600 102.200 C 107.600 101.870,107.356 101.600,107.058 101.600 C 106.761 101.600,106.055 101.172,105.491 100.649 C 104.775 99.986,104.155 99.758,103.438 99.895 C 102.731 100.030,102.333 99.890,102.162 99.446 C 101.895 98.750,101.890 98.750,99.200 99.225 M319.000 99.483 C 314.985 100.497,314.674 100.713,308.473 106.800 C 305.672 109.550,302.439 112.610,301.290 113.599 C 300.140 114.589,299.200 115.547,299.200 115.728 C 299.200 115.909,298.975 116.285,298.700 116.563 C 298.425 116.841,297.030 118.388,295.600 120.000 C 294.170 121.612,292.775 123.159,292.500 123.437 C 292.225 123.715,292.000 124.226,292.000 124.571 C 292.000 124.917,291.828 125.200,291.619 125.200 C 291.398 125.200,291.334 126.015,291.467 127.136 C 291.608 128.328,291.509 129.423,291.208 129.985 C 290.940 130.486,290.902 130.784,291.124 130.647 C 291.346 130.510,291.903 131.173,292.362 132.121 C 295.067 137.710,302.854 139.869,306.769 136.116 C 307.336 135.572,308.295 134.946,308.900 134.725 C 309.504 134.503,309.908 134.174,309.796 133.993 C 309.684 133.812,309.844 133.425,310.152 133.132 C 311.375 131.967,312.429 131.200,312.805 131.200 C 313.022 131.200,313.200 130.953,313.200 130.651 C 313.200 130.349,313.785 129.582,314.500 128.946 C 315.215 128.310,315.995 127.433,316.233 126.995 C 316.471 126.558,317.056 126.022,317.533 125.805 C 318.010 125.588,318.400 125.275,318.400 125.109 C 318.400 124.815,320.612 122.563,321.138 122.321 C 321.282 122.254,321.904 121.525,322.520 120.700 C 323.137 119.875,323.863 119.200,324.134 119.200 C 324.405 119.200,324.953 118.648,325.352 117.974 C 325.750 117.300,326.489 116.560,326.995 116.329 C 327.879 115.927,329.782 112.657,330.096 111.000 C 330.179 110.560,330.462 110.245,330.724 110.300 C 331.385 110.439,331.362 106.948,330.700 106.693 C 330.425 106.587,329.955 105.668,329.656 104.650 C 329.347 103.599,328.872 102.800,328.556 102.800 C 328.250 102.800,328.000 102.440,328.000 102.000 C 328.000 101.560,327.865 101.219,327.700 101.243 C 326.920 101.356,325.600 100.643,325.600 100.110 C 325.600 99.672,325.332 99.581,324.591 99.766 C 323.884 99.944,323.512 99.837,323.348 99.410 C 323.065 98.672,322.151 98.687,319.000 99.483 M225.200 108.800 C 225.200 109.020,224.840 109.200,224.400 109.200 C 223.960 109.200,223.600 109.380,223.600 109.600 C 223.600 109.820,223.240 110.000,222.800 110.000 C 222.360 110.000,222.000 110.180,222.000 110.400 C 222.000 110.620,221.722 110.800,221.382 110.800 C 220.626 110.800,218.800 112.563,218.800 113.294 C 218.800 113.585,218.440 114.083,218.000 114.400 C 217.560 114.717,217.198 115.252,217.196 115.588 C 217.194 115.925,216.654 116.625,215.996 117.145 C 215.338 117.665,214.800 118.295,214.799 118.545 C 214.799 118.795,214.259 119.630,213.600 120.400 C 212.941 121.170,212.401 121.985,212.401 122.212 C 212.400 122.438,212.040 122.883,211.600 123.200 C 211.160 123.517,210.800 124.007,210.800 124.288 C 210.800 124.570,210.650 124.800,210.468 124.800 C 210.285 124.800,209.880 125.295,209.568 125.900 C 209.255 126.505,208.772 127.241,208.494 127.535 C 208.216 127.829,207.496 128.729,206.895 129.535 C 206.294 130.341,205.307 131.477,204.701 132.060 C 204.096 132.644,203.600 133.319,203.600 133.560 C 203.600 133.802,203.420 134.000,203.200 134.000 C 202.980 134.000,202.800 134.230,202.800 134.512 C 202.800 134.793,202.440 135.283,202.000 135.600 C 201.560 135.917,201.200 136.431,201.200 136.741 C 201.200 137.330,199.728 138.800,199.139 138.800 C 198.952 138.800,198.800 139.184,198.800 139.653 C 198.800 140.467,197.454 142.000,196.739 142.000 C 196.552 142.000,196.400 142.345,196.400 142.767 C 196.400 143.959,195.969 144.800,195.357 144.800 C 195.051 144.800,194.799 145.025,194.798 145.300 C 194.796 145.909,192.962 148.718,191.483 150.378 C 190.887 151.046,190.400 151.683,190.400 151.793 C 190.400 151.981,188.246 154.942,186.974 156.505 C 186.658 156.892,186.400 157.305,186.400 157.423 C 186.400 157.540,185.938 158.099,185.373 158.663 C 184.808 159.228,184.182 160.122,183.981 160.650 C 183.780 161.178,183.162 161.817,182.608 162.069 C 181.985 162.353,181.600 162.857,181.600 163.389 C 181.600 163.862,181.240 164.636,180.800 165.108 C 180.360 165.580,180.000 166.154,180.000 166.383 C 180.000 166.612,179.858 166.800,179.685 166.800 C 179.511 166.800,178.746 167.830,177.985 169.089 C 177.223 170.347,175.932 172.192,175.115 173.189 C 172.441 176.450,171.754 177.362,169.681 180.400 C 168.555 182.050,167.086 184.030,166.418 184.800 C 165.749 185.570,165.201 186.385,165.201 186.612 C 165.200 186.838,164.840 187.283,164.400 187.600 C 163.960 187.917,163.600 188.373,163.600 188.613 C 163.600 188.853,163.278 189.398,162.885 189.825 C 162.092 190.685,160.619 192.709,157.515 197.200 C 156.375 198.850,155.103 200.560,154.687 201.000 C 154.272 201.440,153.693 202.250,153.402 202.800 C 153.110 203.350,152.315 204.329,151.636 204.975 C 150.956 205.621,150.399 206.341,150.398 206.575 C 150.397 206.809,149.857 207.575,149.198 208.278 C 148.539 208.981,148.000 209.701,148.000 209.878 C 147.999 210.055,147.549 210.723,147.000 211.362 C 146.450 212.001,146.000 212.657,146.000 212.818 C 146.000 212.980,145.374 213.807,144.609 214.656 C 143.844 215.505,143.214 216.343,143.209 216.517 C 143.204 216.691,142.840 217.220,142.400 217.692 C 141.960 218.164,141.600 218.866,141.600 219.252 C 141.600 219.637,141.420 220.064,141.200 220.200 C 140.980 220.336,140.800 221.416,140.800 222.600 C 140.800 223.784,140.980 224.864,141.200 225.000 C 141.420 225.136,141.600 225.661,141.600 226.167 C 141.600 227.475,144.469 230.565,146.705 231.666 L 148.600 232.600 170.600 232.701 C 182.700 232.757,192.960 232.884,193.400 232.984 C 194.413 233.213,194.644 238.400,193.641 238.400 C 193.190 238.400,193.131 238.978,193.336 241.400 C 193.557 244.009,193.505 244.400,192.939 244.400 C 192.371 244.400,192.315 244.839,192.499 247.800 C 192.679 250.681,192.618 251.200,192.098 251.200 C 191.581 251.200,191.520 251.672,191.711 254.200 C 191.904 256.750,191.845 257.200,191.313 257.200 C 190.794 257.200,190.727 257.576,190.917 259.423 C 191.098 261.174,191.020 261.694,190.550 261.874 C 190.078 262.056,189.980 262.738,190.077 265.152 C 190.167 267.391,190.070 268.174,189.711 268.104 C 189.347 268.032,189.272 268.819,189.415 271.204 C 189.581 273.982,189.520 274.400,188.948 274.400 C 188.377 274.400,188.325 274.745,188.556 277.000 C 188.786 279.245,188.733 279.600,188.171 279.600 C 187.604 279.600,187.555 279.964,187.800 282.400 C 187.995 284.342,187.946 285.200,187.641 285.200 C 187.352 285.200,187.200 286.446,187.200 288.800 C 187.200 290.933,187.037 292.400,186.800 292.400 C 186.567 292.400,186.400 293.733,186.400 295.600 C 186.400 297.467,186.233 298.800,186.000 298.800 C 185.769 298.800,185.600 300.067,185.600 301.800 C 185.600 303.533,185.431 304.800,185.200 304.800 C 184.974 304.800,184.800 305.933,184.800 307.400 C 184.800 308.867,184.626 310.000,184.400 310.000 C 184.167 310.000,184.000 311.333,184.000 313.200 C 184.000 315.067,183.833 316.400,183.600 316.400 C 183.371 316.400,183.200 317.600,183.200 319.200 C 183.200 320.800,183.371 322.000,183.600 322.000 C 183.820 322.000,184.000 322.540,184.000 323.200 C 184.000 323.860,184.180 324.400,184.400 324.400 C 184.620 324.400,184.800 324.578,184.800 324.795 C 184.800 326.245,188.740 328.965,191.743 329.588 C 195.638 330.397,201.206 328.052,202.445 325.083 C 202.702 324.468,203.426 323.414,204.056 322.740 C 204.685 322.067,205.200 321.174,205.200 320.758 C 205.200 320.341,205.339 320.000,205.509 320.000 C 205.679 320.000,206.157 319.370,206.572 318.600 C 206.987 317.830,207.568 317.200,207.863 317.200 C 208.158 317.200,208.400 316.832,208.400 316.383 C 208.400 315.934,208.591 315.349,208.824 315.083 C 209.057 314.817,209.600 314.006,210.030 313.280 C 210.460 312.554,210.990 312.070,211.206 312.204 C 211.423 312.338,211.600 312.050,211.600 311.566 C 211.600 310.649,213.574 307.202,214.100 307.201 C 214.265 307.200,214.400 306.930,214.400 306.600 C 214.400 306.270,214.560 306.000,214.757 306.000 C 214.953 306.000,215.218 305.581,215.347 305.069 C 215.476 304.557,216.035 303.647,216.590 303.048 C 217.146 302.449,217.600 301.608,217.600 301.179 C 217.600 300.751,217.834 300.400,218.120 300.400 C 218.405 300.400,218.871 299.758,219.155 298.974 C 219.439 298.190,219.925 297.450,220.235 297.331 C 220.546 297.212,220.800 296.789,220.800 296.391 C 220.800 295.992,220.943 295.607,221.117 295.533 C 221.291 295.460,221.846 294.725,222.350 293.900 C 222.853 293.075,223.431 292.400,223.633 292.400 C 223.835 292.400,224.000 292.040,224.000 291.600 C 224.000 291.160,224.135 290.798,224.300 290.795 C 224.465 290.793,224.944 290.073,225.364 289.195 C 225.785 288.318,226.370 287.600,226.664 287.600 C 226.959 287.600,227.200 287.282,227.200 286.893 C 227.200 286.186,228.892 283.356,229.767 282.600 C 230.021 282.380,230.731 281.165,231.344 279.900 C 231.957 278.635,232.716 277.600,233.029 277.600 C 233.343 277.600,233.600 277.240,233.600 276.800 C 233.600 276.360,233.760 276.000,233.957 276.000 C 234.153 276.000,234.430 275.534,234.573 274.966 C 234.716 274.397,235.261 273.502,235.785 272.978 C 236.309 272.454,236.866 271.615,237.021 271.113 C 237.337 270.097,238.798 267.874,239.286 267.667 C 239.458 267.593,239.600 267.278,239.600 266.967 C 239.600 266.655,239.736 266.400,239.902 266.400 C 240.069 266.400,240.429 265.894,240.703 265.275 C 240.976 264.656,241.515 263.797,241.900 263.364 C 242.285 262.932,242.942 261.910,243.361 261.093 C 243.779 260.276,244.634 259.033,245.261 258.332 C 245.887 257.630,246.400 256.814,246.400 256.519 C 246.400 255.829,248.398 252.800,248.853 252.800 C 249.044 252.800,249.200 252.530,249.200 252.200 C 249.200 251.870,249.360 251.600,249.557 251.600 C 249.753 251.600,250.030 251.134,250.173 250.566 C 250.316 249.997,250.861 249.102,251.385 248.578 C 251.909 248.054,252.467 247.219,252.625 246.722 C 253.052 245.377,254.537 243.211,255.037 243.205 C 255.277 243.202,255.684 242.497,255.942 241.637 C 256.199 240.777,256.948 239.498,257.605 238.795 C 258.262 238.091,258.800 237.328,258.800 237.100 C 258.800 236.324,260.998 233.194,261.428 233.357 C 261.663 233.446,262.057 232.766,262.304 231.844 C 262.550 230.923,263.213 229.672,263.776 229.064 C 264.339 228.456,264.800 227.788,264.800 227.579 C 264.800 227.371,264.980 227.200,265.200 227.200 C 265.420 227.200,265.600 226.913,265.600 226.562 C 265.600 225.985,266.977 223.696,267.622 223.200 C 267.765 223.090,268.195 222.334,268.577 221.519 C 268.960 220.704,269.683 219.596,270.183 219.056 C 270.683 218.517,271.499 217.236,271.995 216.210 C 272.491 215.185,273.236 214.135,273.649 213.877 C 274.062 213.619,274.400 213.184,274.400 212.910 C 274.400 212.207,276.793 208.400,277.234 208.400 C 277.435 208.400,277.600 208.040,277.600 207.600 C 277.600 207.160,277.743 206.800,277.917 206.800 C 279.386 206.800,279.485 196.962,278.021 196.474 C 277.790 196.397,277.600 196.009,277.600 195.613 C 277.600 195.217,277.240 194.799,276.800 194.684 C 276.360 194.569,276.000 194.188,276.000 193.837 C 276.000 193.467,275.665 193.200,275.200 193.200 C 274.760 193.200,274.400 193.034,274.400 192.832 C 274.400 191.511,268.780 191.122,250.000 191.142 C 239.770 191.153,230.185 191.062,228.700 190.940 L 226.000 190.719 226.000 188.988 C 226.000 187.983,226.252 187.006,226.600 186.657 C 227.070 186.187,227.200 184.965,227.200 181.029 C 227.200 177.096,227.317 176.000,227.735 176.000 C 228.112 176.000,228.429 174.801,228.806 171.958 C 229.100 169.735,229.579 167.678,229.870 167.387 C 230.240 167.017,230.400 165.639,230.400 162.829 C 230.400 160.613,230.550 158.800,230.734 158.800 C 230.917 158.800,231.396 156.533,231.797 153.763 C 232.274 150.474,232.713 148.655,233.064 148.520 C 233.470 148.364,233.600 147.172,233.600 143.591 C 233.600 140.992,233.760 138.807,233.955 138.733 C 234.151 138.660,234.666 136.530,235.099 134.000 C 235.596 131.105,236.057 129.437,236.344 129.500 C 236.674 129.572,236.800 127.222,236.800 120.976 C 236.800 115.856,236.651 112.445,236.434 112.579 C 236.232 112.704,235.451 112.086,234.698 111.206 C 233.849 110.214,232.847 109.509,232.064 109.353 C 231.369 109.214,230.800 108.942,230.800 108.750 C 230.800 108.558,229.540 108.400,228.000 108.400 C 226.400 108.400,225.200 108.571,225.200 108.800 M50.800 209.376 C 50.800 209.907,50.247 210.226,49.891 209.900 C 49.196 209.264,44.800 215.235,44.800 216.814 C 44.800 217.220,44.620 217.664,44.400 217.800 C 44.180 217.936,44.000 218.836,44.000 219.800 C 44.000 220.764,44.180 221.664,44.400 221.800 C 44.620 221.936,44.800 222.361,44.800 222.745 C 44.800 224.088,47.188 226.736,49.357 227.796 L 51.473 228.832 68.330 228.783 L 85.186 228.734 86.435 227.567 C 87.122 226.925,87.936 226.400,88.242 226.400 C 88.549 226.400,88.800 226.113,88.800 225.762 C 88.800 225.411,89.136 224.646,89.548 224.062 C 89.959 223.478,90.421 222.595,90.574 222.100 C 90.728 221.605,91.022 221.200,91.227 221.200 C 91.432 221.200,91.600 220.390,91.600 219.400 C 91.600 218.410,91.420 217.600,91.200 217.600 C 90.980 217.600,90.800 217.324,90.800 216.987 C 90.800 216.649,90.358 215.501,89.818 214.435 C 89.278 213.370,88.924 212.410,89.031 212.303 C 89.138 212.195,88.705 211.892,88.070 211.629 C 87.434 211.365,86.519 210.616,86.037 209.964 C 85.554 209.311,85.000 208.876,84.806 208.996 C 84.278 209.322,51.777 209.357,51.252 209.032 C 50.990 208.870,50.800 209.015,50.800 209.376 M336.000 209.423 C 336.000 209.922,335.745 210.044,335.000 209.902 C 334.396 209.787,334.000 209.896,334.000 210.177 C 334.000 210.433,333.358 211.263,332.574 212.022 C 331.789 212.780,330.871 214.030,330.533 214.800 C 330.195 215.570,329.722 216.613,329.482 217.117 C 327.866 220.517,330.502 226.144,334.600 228.042 C 336.983 229.145,367.917 229.196,370.286 228.100 C 374.113 226.330,376.740 221.660,375.961 218.010 C 375.798 217.245,375.750 216.480,375.856 216.310 C 375.961 216.139,375.857 216.000,375.624 216.000 C 375.391 216.000,375.200 215.531,375.200 214.958 C 375.200 214.322,374.810 213.608,374.200 213.129 C 373.650 212.696,373.200 212.085,373.200 211.771 C 373.200 211.457,372.930 211.200,372.600 211.200 C 372.270 211.200,372.000 211.020,372.000 210.800 C 372.000 210.580,371.634 210.400,371.187 210.400 C 370.741 210.400,370.270 210.128,370.143 209.795 C 369.941 209.268,367.776 209.193,353.347 209.214 C 344.237 209.227,336.607 209.128,336.392 208.995 C 336.176 208.862,336.000 209.054,336.000 209.423 M115.029 301.069 C 114.930 301.327,114.478 301.441,114.024 301.322 C 113.489 301.182,113.200 301.298,113.201 301.653 C 113.202 302.429,90.823 324.462,90.338 324.162 C 90.079 324.002,90.034 324.554,90.210 325.729 C 90.505 327.697,90.154 328.886,89.556 327.943 C 89.333 327.590,89.210 327.996,89.206 329.100 C 89.202 330.266,89.448 331.048,89.991 331.591 C 90.426 332.026,90.696 332.611,90.591 332.891 C 90.269 333.746,93.317 337.340,95.215 338.344 C 98.058 339.847,103.902 339.453,105.414 337.657 C 105.995 336.966,106.648 336.400,106.864 336.400 C 107.342 336.400,108.400 335.385,108.400 334.926 C 108.400 334.325,112.733 330.400,113.397 330.400 C 113.761 330.400,113.930 330.210,113.780 329.967 C 113.467 329.461,115.505 327.200,116.275 327.200 C 116.564 327.200,116.800 326.964,116.800 326.675 C 116.800 326.029,118.865 324.000,119.522 324.000 C 119.785 324.000,120.000 323.839,120.000 323.641 C 120.000 323.158,122.090 320.800,122.518 320.800 C 122.931 320.800,123.650 320.038,124.233 318.983 C 124.471 318.552,125.035 318.031,125.487 317.825 C 126.248 317.477,128.400 313.845,128.400 312.909 C 128.400 312.683,128.670 312.274,129.000 312.000 C 129.362 311.700,129.600 310.824,129.600 309.794 C 129.600 308.644,129.404 308.010,129.000 307.855 C 128.670 307.729,128.400 307.358,128.400 307.031 C 128.400 306.019,127.499 304.400,126.936 304.400 C 126.641 304.400,126.400 304.081,126.400 303.691 C 126.400 303.291,125.790 302.653,125.000 302.228 C 124.230 301.813,123.600 301.268,123.600 301.017 C 123.600 300.372,115.277 300.422,115.029 301.069 M297.000 300.947 C 296.560 301.196,296.054 301.629,295.875 301.908 C 295.697 302.188,295.389 302.317,295.192 302.195 C 294.686 301.882,293.200 302.882,293.200 303.535 C 293.200 304.139,291.983 306.466,291.470 306.842 C 290.928 307.240,291.121 312.955,291.714 314.100 C 293.362 317.276,313.651 337.509,316.296 338.614 C 322.878 341.365,329.985 336.570,329.996 329.371 C 330.000 326.900,329.021 323.200,328.362 323.200 C 328.163 323.200,328.000 322.930,328.000 322.600 C 328.000 322.270,327.807 322.000,327.571 322.000 C 327.018 322.000,326.000 320.982,326.000 320.429 C 326.000 320.193,325.730 320.000,325.400 320.000 C 325.070 320.000,324.800 319.730,324.800 319.400 C 324.800 319.070,324.607 318.800,324.371 318.800 C 324.136 318.800,323.686 318.543,323.371 318.229 C 323.057 317.914,322.800 317.464,322.800 317.229 C 322.800 316.993,322.530 316.800,322.200 316.800 C 321.870 316.800,321.600 316.530,321.600 316.200 C 321.600 315.870,321.375 315.595,321.100 315.589 C 320.825 315.583,320.150 314.943,319.600 314.167 C 319.050 313.391,318.178 312.584,317.661 312.374 C 317.145 312.163,316.629 311.633,316.515 311.195 C 316.400 310.758,316.058 310.400,315.753 310.400 C 315.449 310.400,315.200 310.173,315.200 309.896 C 315.200 309.619,314.840 309.168,314.400 308.893 C 313.960 308.618,313.600 308.125,313.600 307.797 C 313.600 307.468,313.309 307.200,312.953 307.200 C 312.224 307.200,309.200 304.337,309.200 303.647 C 309.200 303.401,308.924 303.200,308.587 303.200 C 308.251 303.200,307.871 302.930,307.745 302.600 C 307.618 302.270,307.174 302.000,306.757 302.000 C 306.302 302.000,306.000 301.720,306.000 301.298 C 306.000 300.445,298.410 300.149,297.000 300.947 M207.200 338.800 C 207.200 339.020,206.705 339.209,206.100 339.220 C 205.373 339.233,204.457 339.774,203.400 340.817 C 202.520 341.684,201.682 342.396,201.537 342.397 C 201.393 342.399,201.369 342.760,201.484 343.200 C 201.632 343.766,201.496 344.000,201.020 344.000 C 200.528 344.000,200.415 344.216,200.600 344.800 C 200.780 345.368,200.672 345.600,200.227 345.600 C 199.295 345.600,199.269 377.387,200.200 377.745 C 200.530 377.871,200.800 378.341,200.800 378.787 C 200.800 379.234,200.980 379.600,201.200 379.600 C 201.420 379.600,201.600 379.848,201.600 380.152 C 201.600 383.947,212.284 386.395,215.565 383.352 C 216.130 382.828,216.819 382.400,217.096 382.400 C 217.373 382.400,217.600 382.130,217.600 381.800 C 217.600 381.470,217.755 381.200,217.944 381.200 C 218.810 381.200,220.000 376.684,220.000 373.398 C 220.000 371.124,220.159 369.993,220.500 369.833 C 220.900 369.647,220.900 369.553,220.500 369.367 C 220.154 369.205,220.000 368.024,220.000 365.543 C 220.000 363.251,220.145 362.042,220.400 362.200 C 220.620 362.336,220.800 362.066,220.800 361.600 C 220.800 361.134,220.620 360.864,220.400 361.000 C 219.787 361.379,219.883 354.684,220.500 354.030 C 220.900 353.606,220.900 353.463,220.500 353.317 C 220.152 353.189,220.000 352.065,220.000 349.613 C 220.000 345.818,219.067 342.000,218.139 342.000 C 217.843 342.000,217.600 341.714,217.600 341.364 C 217.600 340.583,216.044 339.231,215.124 339.213 C 214.752 339.206,214.336 339.020,214.200 338.800 C 214.064 338.580,212.433 338.400,210.576 338.400 C 208.592 338.400,207.200 338.565,207.200 338.800 " stroke="none" fill="#eac649" fill-rule="evenodd"></path><path id="path1" d="M206.600 52.800 C 206.464 53.020,205.913 53.200,205.376 53.200 C 204.839 53.200,204.400 53.380,204.400 53.600 C 204.400 53.820,204.142 54.000,203.827 54.000 C 203.100 54.000,200.400 57.263,200.400 58.141 C 200.400 58.504,200.220 58.800,200.000 58.800 C 199.780 58.800,199.600 59.250,199.600 59.800 C 199.600 61.250,200.255 61.027,201.071 59.300 C 202.348 56.599,204.911 54.400,206.781 54.400 C 207.144 54.400,207.650 54.190,207.907 53.933 C 208.452 53.388,212.189 53.251,213.500 53.727 C 214.249 53.999,214.400 53.915,214.400 53.227 C 214.400 52.314,207.146 51.917,206.600 52.800 M215.600 54.386 C 215.600 54.742,216.853 55.600,217.374 55.600 C 217.498 55.600,217.600 55.240,217.600 54.800 C 217.600 54.213,217.333 54.000,216.600 54.000 C 216.050 54.000,215.600 54.174,215.600 54.386 M218.800 57.523 C 218.800 57.732,219.070 58.549,219.400 59.338 C 219.791 60.274,220.000 62.103,220.000 64.587 C 220.000 66.932,220.158 68.400,220.411 68.400 C 221.395 68.400,220.693 57.413,219.700 57.272 C 219.205 57.202,218.800 57.315,218.800 57.523 M220.000 72.576 C 220.000 74.433,220.180 76.064,220.400 76.200 C 220.655 76.358,220.800 75.137,220.800 72.824 C 220.800 70.675,220.637 69.200,220.400 69.200 C 220.165 69.200,220.000 70.592,220.000 72.576 M220.000 80.600 C 220.000 82.600,220.165 84.000,220.400 84.000 C 220.635 84.000,220.800 82.600,220.800 80.600 C 220.800 78.600,220.635 77.200,220.400 77.200 C 220.165 77.200,220.000 78.600,220.000 80.600 M219.991 88.476 C 219.985 91.318,219.795 92.613,219.191 93.944 C 218.154 96.229,218.183 96.400,219.600 96.400 L 220.800 96.400 220.800 90.824 C 220.800 87.537,220.636 85.146,220.400 85.000 C 220.144 84.842,219.997 86.098,219.991 88.476 M199.600 93.800 C 199.600 94.350,199.780 94.800,200.000 94.800 C 200.220 94.800,200.400 95.042,200.400 95.339 C 200.400 97.184,203.550 100.633,206.028 101.500 C 208.541 102.380,214.400 102.170,214.400 101.200 C 214.400 100.533,214.667 100.400,216.000 100.400 L 217.600 100.400 217.600 98.800 C 217.600 96.886,217.601 96.886,215.418 98.388 C 211.011 101.419,201.600 99.124,201.600 95.017 C 201.600 94.678,201.347 94.400,201.037 94.400 C 200.672 94.400,200.548 94.120,200.684 93.600 C 200.830 93.044,200.696 92.800,200.247 92.800 C 199.824 92.800,199.600 93.146,199.600 93.800 M96.400 98.400 C 96.400 98.620,96.040 98.800,95.600 98.800 C 95.160 98.800,94.800 98.980,94.800 99.200 C 94.800 99.420,94.440 99.600,94.000 99.600 C 93.560 99.600,93.200 99.780,93.200 100.000 C 93.200 100.220,92.917 100.400,92.571 100.400 C 92.226 100.400,91.686 100.657,91.371 100.971 C 91.057 101.286,90.800 101.826,90.800 102.171 C 90.800 102.517,90.620 102.800,90.400 102.800 C 90.180 102.800,90.000 103.070,90.000 103.400 C 90.000 103.730,90.270 104.000,90.600 104.000 C 90.930 104.000,91.201 103.775,91.201 103.500 C 91.202 103.225,91.741 102.640,92.400 102.200 C 93.059 101.760,93.598 101.265,93.599 101.100 C 93.599 100.935,93.960 100.800,94.400 100.800 C 94.840 100.800,95.200 100.641,95.200 100.447 C 95.200 100.059,96.454 99.687,99.168 99.271 C 101.963 98.843,101.741 98.000,98.833 98.000 C 97.478 98.000,96.400 98.177,96.400 98.400 M317.600 98.400 C 317.600 98.620,316.970 98.800,316.200 98.800 C 315.430 98.800,314.800 98.980,314.800 99.200 C 314.800 99.420,314.524 99.600,314.187 99.600 C 313.535 99.600,306.722 106.302,302.400 111.195 C 300.970 112.814,299.566 114.332,299.279 114.569 C 297.005 116.450,291.600 122.092,291.600 122.585 C 291.600 122.923,291.464 123.200,291.297 123.200 C 290.272 123.200,289.535 129.846,290.518 130.224 C 290.843 130.349,290.980 130.908,290.885 131.720 C 290.776 132.657,290.964 133.225,291.567 133.770 C 292.025 134.185,292.400 134.684,292.400 134.880 C 292.400 135.432,294.300 137.200,294.894 137.200 C 295.185 137.200,295.683 137.560,296.000 138.000 C 296.398 138.553,297.035 138.800,298.061 138.800 C 299.195 138.800,299.606 138.989,299.800 139.600 C 299.980 140.168,300.405 140.400,301.264 140.400 C 302.138 140.400,302.533 140.178,302.684 139.600 C 302.848 138.973,303.230 138.800,304.447 138.800 C 305.733 138.800,306.000 138.663,306.000 138.000 C 306.000 137.333,306.267 137.200,307.600 137.200 C 309.111 137.200,309.200 137.133,309.200 136.000 C 309.200 134.487,308.553 134.473,306.974 135.953 C 302.792 139.873,295.133 137.845,292.342 132.079 C 291.491 130.323,291.004 125.200,291.687 125.200 C 291.859 125.200,292.000 124.917,292.000 124.571 C 292.000 124.226,292.225 123.715,292.500 123.437 C 292.775 123.159,294.170 121.612,295.600 120.000 C 297.030 118.388,298.425 116.841,298.700 116.563 C 298.975 116.285,299.200 115.909,299.200 115.728 C 299.200 115.547,300.140 114.589,301.290 113.599 C 302.439 112.610,305.672 109.550,308.473 106.800 C 311.275 104.050,313.889 101.603,314.283 101.362 C 315.883 100.386,316.706 100.065,318.971 99.532 C 322.047 98.809,322.397 98.000,319.633 98.000 C 318.515 98.000,317.600 98.180,317.600 98.400 M102.100 99.300 C 102.192 99.575,102.687 99.800,103.200 99.800 C 103.713 99.800,104.208 99.575,104.300 99.300 C 104.410 98.970,104.036 98.800,103.200 98.800 C 102.364 98.800,101.990 98.970,102.100 99.300 M323.300 99.300 C 323.392 99.575,323.707 99.800,324.000 99.800 C 324.293 99.800,324.608 99.575,324.700 99.300 C 324.799 99.003,324.516 98.800,324.000 98.800 C 323.484 98.800,323.201 99.003,323.300 99.300 M104.800 99.954 C 104.800 100.369,106.584 101.600,107.186 101.600 C 107.414 101.600,107.600 101.150,107.600 100.600 C 107.600 99.724,107.427 99.600,106.200 99.600 C 105.430 99.600,104.800 99.759,104.800 99.954 M325.603 100.100 C 325.607 100.648,327.427 101.640,327.780 101.286 C 328.492 100.574,327.926 99.600,326.800 99.600 C 326.105 99.600,325.601 99.810,325.603 100.100 M108.800 103.320 C 108.800 103.606,109.016 104.056,109.280 104.320 C 110.074 105.114,110.800 104.865,110.800 103.800 C 110.800 103.000,110.600 102.800,109.800 102.800 C 109.246 102.800,108.800 103.032,108.800 103.320 M329.206 103.100 C 329.209 103.265,329.460 104.114,329.764 104.986 C 330.575 107.316,331.200 107.249,331.200 104.833 C 331.200 102.931,331.136 102.800,330.200 102.800 C 329.650 102.800,329.203 102.935,329.206 103.100 M89.272 105.269 C 89.461 106.549,90.400 106.686,90.400 105.433 C 90.400 104.761,90.181 104.400,89.772 104.400 C 89.355 104.400,89.187 104.692,89.272 105.269 M112.000 106.600 C 112.000 106.930,112.075 107.200,112.167 107.200 C 112.259 107.200,112.619 107.309,112.967 107.443 C 113.421 107.617,113.600 107.447,113.600 106.843 C 113.600 106.267,113.347 106.000,112.800 106.000 C 112.356 106.000,112.000 106.267,112.000 106.600 M88.643 107.433 C 88.168 108.669,88.377 110.400,89.000 110.400 C 89.444 110.400,89.600 109.933,89.600 108.600 C 89.600 106.815,89.109 106.217,88.643 107.433 M224.000 108.000 C 224.000 108.220,223.766 108.400,223.480 108.400 C 222.744 108.400,220.807 109.341,220.803 109.700 C 220.801 109.865,220.506 110.000,220.147 110.000 C 219.495 110.000,217.601 111.891,217.600 112.542 C 217.600 112.731,217.031 113.603,216.337 114.480 C 214.607 116.664,213.200 118.767,213.200 119.170 C 213.200 119.353,212.480 120.245,211.600 121.152 C 210.720 122.059,210.000 122.982,210.000 123.204 C 210.000 123.426,209.460 124.172,208.800 124.863 C 208.140 125.554,207.600 126.272,207.600 126.459 C 207.600 126.646,206.880 127.541,206.000 128.448 C 205.120 129.355,204.400 130.262,204.400 130.465 C 204.400 130.668,204.064 131.194,203.654 131.634 C 203.243 132.075,202.495 133.237,201.991 134.218 C 201.487 135.198,200.923 136.000,200.737 136.000 C 200.552 136.000,200.400 136.270,200.400 136.600 C 200.400 136.930,200.220 137.200,200.000 137.200 C 199.780 137.200,199.600 137.470,199.600 137.800 C 199.600 138.130,199.703 138.400,199.829 138.400 C 200.266 138.400,201.200 137.254,201.200 136.717 C 201.200 136.420,201.560 135.917,202.000 135.600 C 202.440 135.283,202.800 134.793,202.800 134.512 C 202.800 134.230,202.980 134.000,203.200 134.000 C 203.420 134.000,203.600 133.802,203.600 133.560 C 203.600 133.319,204.096 132.644,204.701 132.060 C 205.307 131.477,206.294 130.341,206.895 129.535 C 207.496 128.729,208.216 127.829,208.494 127.535 C 208.772 127.241,209.255 126.505,209.568 125.900 C 209.880 125.295,210.285 124.800,210.468 124.800 C 210.650 124.800,210.800 124.570,210.800 124.288 C 210.800 124.007,211.160 123.517,211.600 123.200 C 212.040 122.883,212.400 122.438,212.401 122.212 C 212.401 121.985,212.941 121.170,213.600 120.400 C 214.259 119.630,214.799 118.795,214.799 118.545 C 214.800 118.295,215.338 117.665,215.996 117.145 C 216.654 116.625,217.194 115.925,217.196 115.588 C 217.198 115.252,217.560 114.717,218.000 114.400 C 218.440 114.083,218.800 113.585,218.800 113.294 C 218.800 112.563,220.626 110.800,221.382 110.800 C 221.722 110.800,222.000 110.620,222.000 110.400 C 222.000 110.180,222.360 110.000,222.800 110.000 C 223.240 110.000,223.600 109.820,223.600 109.600 C 223.600 109.380,223.960 109.200,224.400 109.200 C 224.840 109.200,225.200 109.020,225.200 108.800 C 225.200 108.574,226.333 108.400,227.800 108.400 C 229.267 108.400,230.400 108.226,230.400 108.000 C 230.400 107.767,229.067 107.600,227.200 107.600 C 225.333 107.600,224.000 107.767,224.000 108.000 M114.400 108.730 C 114.400 109.119,116.127 110.800,116.526 110.800 C 116.677 110.800,116.800 110.260,116.800 109.600 C 116.800 108.533,116.667 108.400,115.600 108.400 C 114.940 108.400,114.400 108.549,114.400 108.730 M230.800 108.800 C 230.800 109.020,231.025 109.202,231.300 109.205 C 231.575 109.208,232.205 109.319,232.700 109.452 C 233.362 109.629,233.600 109.522,233.600 109.047 C 233.600 108.574,233.223 108.400,232.200 108.400 C 231.430 108.400,230.800 108.580,230.800 108.800 M234.000 110.325 C 234.000 111.012,236.310 112.869,236.594 112.410 C 237.231 111.379,236.429 110.000,235.192 110.000 C 234.537 110.000,234.000 110.146,234.000 110.325 M330.256 110.278 C 330.115 110.418,330.000 110.825,330.000 111.182 C 330.000 111.539,329.640 112.537,329.200 113.400 C 328.760 114.263,328.400 115.021,328.400 115.085 C 328.400 115.148,329.030 115.200,329.800 115.200 L 331.200 115.200 331.200 112.824 C 331.200 110.604,330.856 109.677,330.256 110.278 M117.411 111.582 C 117.113 112.064,118.764 114.000,119.472 114.000 C 120.240 114.000,120.148 111.742,119.367 111.443 C 118.448 111.090,117.681 111.145,117.411 111.582 M89.200 112.600 C 89.200 113.150,89.380 113.600,89.600 113.600 C 89.820 113.600,90.000 113.960,90.000 114.400 C 90.000 114.840,90.180 115.200,90.400 115.200 C 90.620 115.200,90.800 115.560,90.800 116.000 C 90.800 116.440,91.475 117.433,92.300 118.207 C 94.938 120.681,101.774 127.242,107.298 132.600 C 112.803 137.940,113.875 138.794,115.095 138.809 C 115.483 138.814,116.250 139.170,116.800 139.600 C 118.126 140.637,119.613 140.637,119.884 139.600 C 120.048 138.973,120.430 138.800,121.647 138.800 C 122.938 138.800,123.200 138.664,123.200 137.992 C 123.200 137.306,123.035 137.229,122.100 137.482 C 116.880 138.891,114.639 137.820,107.026 130.281 C 103.649 126.937,99.422 122.781,97.634 121.047 C 92.376 115.947,90.400 113.631,90.400 112.568 C 90.400 111.974,90.168 111.600,89.800 111.600 C 89.427 111.600,89.200 111.978,89.200 112.600 M120.400 114.678 C 120.400 115.075,122.485 117.200,122.875 117.200 C 123.491 117.200,123.213 114.891,122.567 114.643 C 121.711 114.314,120.400 114.335,120.400 114.678 M325.960 117.242 C 325.322 117.926,324.800 118.646,324.800 118.842 C 324.800 119.039,324.539 119.200,324.220 119.200 C 323.902 119.200,323.137 119.875,322.520 120.700 C 321.904 121.525,321.282 122.254,321.138 122.321 C 320.525 122.603,318.400 124.840,318.400 125.203 C 318.400 125.422,318.158 125.600,317.862 125.600 C 317.222 125.600,316.000 126.867,316.000 127.531 C 316.000 127.789,316.540 128.000,317.200 128.000 C 318.267 128.000,318.400 127.867,318.400 126.800 C 318.400 125.667,318.489 125.600,320.000 125.600 L 321.600 125.600 321.600 124.000 L 321.600 122.400 323.200 122.400 L 324.800 122.400 324.800 120.800 L 324.800 119.200 326.400 119.200 L 328.000 119.200 328.000 117.600 C 328.000 115.672,327.508 115.586,325.960 117.242 M124.400 118.938 C 124.400 119.622,125.777 120.890,126.132 120.534 C 126.863 119.804,126.381 118.400,125.400 118.400 C 124.829 118.400,124.400 118.631,124.400 118.938 M127.200 122.020 C 127.200 122.251,127.496 123.013,127.859 123.714 C 128.839 125.610,128.738 129.849,127.659 132.078 C 126.544 134.381,126.562 134.474,128.100 134.325 L 129.400 134.200 129.510 127.900 L 129.620 121.600 128.410 121.600 C 127.745 121.600,127.200 121.789,127.200 122.020 M313.862 129.531 C 312.917 130.576,313.043 131.200,314.200 131.200 C 315.044 131.200,315.200 131.013,315.200 130.000 C 315.200 128.624,314.808 128.487,313.862 129.531 M235.855 129.633 C 235.621 130.405,234.400 137.722,234.400 138.350 C 234.400 138.663,234.815 138.805,235.500 138.727 L 236.600 138.600 236.714 134.234 C 236.817 130.320,236.370 127.930,235.855 129.633 M311.749 131.741 C 311.501 131.993,310.908 132.520,310.432 132.911 C 309.403 133.755,309.664 134.400,311.036 134.400 C 312.136 134.400,312.524 133.762,312.330 132.275 C 312.233 131.532,312.086 131.398,311.749 131.741 M124.662 135.931 C 123.729 136.963,123.829 137.200,125.200 137.200 C 126.213 137.200,126.400 137.044,126.400 136.200 C 126.400 135.017,125.601 134.894,124.662 135.931 M197.700 140.198 C 197.184 140.785,197.026 141.600,197.429 141.600 C 197.821 141.600,198.800 140.478,198.800 140.029 C 198.800 139.440,198.300 139.517,197.700 140.198 M195.300 143.398 C 195.025 143.711,194.800 144.154,194.800 144.383 C 194.800 145.041,195.888 144.868,196.157 144.167 C 196.691 142.776,196.220 142.354,195.300 143.398 M193.300 146.210 C 192.805 146.739,192.400 147.364,192.400 147.599 C 192.400 147.834,191.770 148.657,191.000 149.427 C 190.230 150.197,189.600 150.973,189.600 151.152 C 189.600 151.438,189.155 152.048,187.607 153.883 C 187.383 154.149,187.200 154.604,187.200 154.895 C 187.200 155.186,186.840 155.683,186.400 156.000 C 185.960 156.317,185.600 156.825,185.600 157.128 C 185.600 157.431,185.105 158.161,184.500 158.750 C 183.226 159.991,182.247 161.580,182.563 161.896 C 182.873 162.206,184.000 161.198,184.000 160.610 C 184.000 160.340,184.540 159.554,185.200 158.863 C 185.860 158.172,186.400 157.518,186.400 157.408 C 186.400 157.299,186.658 156.892,186.974 156.505 C 188.246 154.942,190.400 151.981,190.400 151.793 C 190.400 151.683,190.887 151.046,191.483 150.378 C 194.415 147.087,196.102 143.217,193.300 146.210 M232.608 148.900 C 232.377 149.596,231.200 157.344,231.200 158.174 C 231.200 158.679,231.482 158.821,232.300 158.727 L 233.400 158.600 233.512 153.500 C 233.613 148.895,233.241 147.001,232.608 148.900 M180.500 163.798 C 180.225 164.111,180.000 164.572,180.000 164.823 C 180.000 165.074,179.460 165.783,178.800 166.400 C 178.140 167.017,177.600 167.733,177.600 167.992 C 177.600 168.251,176.880 169.154,176.000 170.000 C 175.120 170.846,174.400 171.733,174.400 171.972 C 174.400 172.212,173.860 172.972,173.200 173.663 C 172.540 174.354,172.000 175.086,172.000 175.291 C 172.000 175.495,171.280 176.354,170.400 177.200 C 169.520 178.046,168.800 179.021,168.800 179.369 C 168.800 179.716,168.650 180.000,168.468 180.000 C 168.285 180.000,167.880 180.495,167.568 181.100 C 167.256 181.705,166.906 182.290,166.790 182.400 C 166.036 183.115,164.000 185.990,164.000 186.339 C 164.000 186.573,163.550 187.214,163.000 187.764 C 162.450 188.314,162.000 188.970,162.000 189.221 C 162.000 189.473,161.460 190.183,160.800 190.800 C 160.140 191.417,159.600 192.133,159.600 192.392 C 159.600 192.651,158.880 193.554,158.000 194.400 C 157.120 195.246,156.400 196.182,156.400 196.480 C 156.400 196.779,156.040 197.283,155.600 197.600 C 155.160 197.917,154.800 198.421,154.800 198.720 C 154.800 199.018,154.080 199.954,153.200 200.800 C 152.320 201.646,151.600 202.549,151.600 202.808 C 151.600 203.067,151.105 203.756,150.500 204.340 C 149.895 204.923,148.962 206.210,148.427 207.200 C 147.891 208.190,147.126 209.235,146.727 209.523 C 146.327 209.810,146.000 210.265,146.000 210.534 C 146.000 210.803,145.640 211.283,145.200 211.600 C 144.760 211.917,144.400 212.369,144.400 212.604 C 144.400 212.840,143.680 213.828,142.800 214.800 C 141.920 215.772,141.200 216.800,141.200 217.084 C 141.200 217.368,141.049 217.600,140.864 217.600 C 138.914 217.600,139.292 226.847,141.340 229.238 C 141.703 229.662,142.000 230.147,142.000 230.316 C 142.000 230.485,142.381 230.888,142.848 231.212 C 143.314 231.535,144.200 232.295,144.817 232.900 C 145.454 233.525,146.383 234.000,146.969 234.000 C 147.536 234.000,148.000 234.180,148.000 234.400 C 148.000 234.661,155.133 234.800,168.600 234.800 C 182.067 234.800,189.200 234.661,189.200 234.400 C 189.200 234.180,190.010 234.000,191.000 234.000 C 191.990 234.000,192.800 234.180,192.800 234.400 C 192.800 235.058,193.894 234.852,194.167 234.143 C 194.600 233.013,194.451 233.005,171.267 232.800 L 148.600 232.600 146.705 231.666 C 144.469 230.565,141.600 227.475,141.600 226.167 C 141.600 225.661,141.420 225.136,141.200 225.000 C 140.980 224.864,140.800 223.784,140.800 222.600 C 140.800 221.416,140.980 220.336,141.200 220.200 C 141.420 220.064,141.600 219.637,141.600 219.252 C 141.600 218.866,141.960 218.164,142.400 217.692 C 142.840 217.220,143.204 216.691,143.209 216.517 C 143.214 216.343,143.844 215.505,144.609 214.656 C 145.374 213.807,146.000 212.980,146.000 212.818 C 146.000 212.657,146.450 212.001,147.000 211.362 C 147.549 210.723,147.999 210.055,148.000 209.878 C 148.000 209.701,148.539 208.981,149.198 208.278 C 149.857 207.575,150.397 206.809,150.398 206.575 C 150.399 206.341,150.956 205.621,151.636 204.975 C 152.315 204.329,153.110 203.350,153.402 202.800 C 153.693 202.250,154.272 201.440,154.687 201.000 C 155.103 200.560,156.375 198.850,157.515 197.200 C 160.619 192.709,162.092 190.685,162.885 189.825 C 163.278 189.398,163.600 188.853,163.600 188.613 C 163.600 188.373,163.960 187.917,164.400 187.600 C 164.840 187.283,165.200 186.838,165.201 186.612 C 165.201 186.385,165.749 185.570,166.418 184.800 C 167.086 184.030,168.555 182.050,169.681 180.400 C 171.754 177.362,172.441 176.450,175.115 173.189 C 175.932 172.192,177.223 170.347,177.985 169.089 C 178.746 167.830,179.511 166.800,179.685 166.800 C 179.858 166.800,180.000 166.612,180.000 166.383 C 180.000 166.154,180.360 165.580,180.800 165.108 C 181.594 164.256,181.876 163.186,181.300 163.215 C 181.135 163.224,180.775 163.486,180.500 163.798 M229.428 168.100 C 228.170 174.161,228.163 176.000,229.400 176.000 L 230.400 176.000 230.400 171.600 C 230.400 167.536,229.911 165.775,229.428 168.100 M226.243 187.033 C 225.741 188.340,225.974 190.800,226.600 190.800 C 227.061 190.800,227.200 190.289,227.200 188.600 C 227.200 186.475,226.744 185.727,226.243 187.033 M232.185 190.368 C 231.973 190.576,231.080 190.823,230.200 190.917 C 229.164 191.028,229.412 191.073,230.905 191.044 C 232.172 191.020,233.221 190.825,233.235 190.610 C 233.270 190.061,232.644 189.917,232.185 190.368 M236.667 190.267 C 236.048 190.885,236.499 191.200,238.000 191.200 C 239.156 191.200,239.600 191.033,239.600 190.600 C 239.600 189.984,237.220 189.714,236.667 190.267 M244.300 191.093 C 245.235 191.177,246.765 191.177,247.700 191.093 C 248.635 191.009,247.870 190.940,246.000 190.940 C 244.130 190.940,243.365 191.009,244.300 191.093 M252.100 191.091 C 252.925 191.178,254.275 191.178,255.100 191.091 C 255.925 191.005,255.250 190.934,253.600 190.934 C 251.950 190.934,251.275 191.005,252.100 191.091 M259.911 191.093 C 260.851 191.178,262.291 191.177,263.111 191.091 C 263.930 191.005,263.160 190.936,261.400 190.937 C 259.640 190.939,258.970 191.009,259.911 191.093 M268.529 191.238 C 269.810 191.425,271.520 191.762,272.329 191.987 C 274.310 192.537,274.400 192.521,274.400 191.600 C 274.400 190.849,274.150 190.803,270.300 190.849 C 266.398 190.895,266.312 190.914,268.529 191.238 M276.075 193.895 C 276.276 194.938,277.600 195.054,277.600 194.029 C 277.600 193.457,277.343 193.200,276.771 193.200 C 276.198 193.200,275.983 193.415,276.075 193.895 M278.710 197.700 C 279.096 199.433,279.049 203.873,278.626 205.532 C 278.296 206.829,278.318 206.861,279.444 206.732 L 280.600 206.600 280.717 202.400 C 280.862 197.174,280.692 196.400,279.402 196.400 C 278.501 196.400,278.444 196.507,278.710 197.700 M52.000 208.403 L 51.000 209.182 53.600 209.230 C 56.654 209.286,75.710 209.237,81.200 209.160 C 84.501 209.113,84.752 209.064,83.112 208.788 C 80.511 208.350,74.164 208.248,72.078 208.611 C 70.944 208.809,70.043 208.744,69.443 208.423 C 68.749 208.051,68.133 208.041,66.876 208.379 C 65.183 208.836,60.000 208.548,60.000 207.998 C 60.000 207.261,53.011 207.614,52.000 208.403 M342.400 208.200 C 341.630 208.497,339.935 208.753,338.633 208.770 C 337.332 208.786,336.365 208.898,336.485 209.019 C 336.606 209.139,344.175 209.227,353.307 209.214 C 367.771 209.193,369.941 209.268,370.143 209.795 C 370.434 210.555,372.000 210.595,372.000 209.843 C 372.000 208.871,370.070 208.716,358.337 208.743 C 348.629 208.766,346.840 208.681,346.650 208.185 C 346.370 207.456,344.312 207.464,342.400 208.200 M275.634 210.406 C 274.095 212.908,274.091 212.874,275.900 212.724 L 277.400 212.600 277.521 210.500 C 277.672 207.870,277.209 207.847,275.634 210.406 M47.898 209.876 C 45.874 210.926,43.600 213.728,43.600 215.172 C 43.600 215.627,43.420 216.000,43.200 216.000 C 42.963 216.000,42.800 217.467,42.800 219.600 C 42.800 221.733,42.963 223.200,43.200 223.200 C 43.420 223.200,43.600 223.688,43.600 224.285 C 43.600 225.692,47.597 229.600,49.036 229.600 C 49.566 229.600,50.000 229.782,50.000 230.004 C 50.000 230.272,55.976 230.373,67.700 230.304 C 84.560 230.205,85.400 230.165,85.400 229.467 C 85.400 228.766,84.638 228.735,68.437 228.783 L 51.473 228.832 49.357 227.796 C 47.188 226.736,44.800 224.088,44.800 222.745 C 44.800 222.361,44.620 221.936,44.400 221.800 C 44.180 221.664,44.000 220.764,44.000 219.800 C 44.000 218.836,44.180 217.936,44.400 217.800 C 44.620 217.664,44.800 217.220,44.800 216.814 C 44.800 215.642,46.430 212.901,47.979 211.468 C 49.401 210.152,49.652 210.000,50.400 210.000 C 50.620 210.000,50.800 209.730,50.800 209.400 C 50.800 208.596,50.163 208.700,47.898 209.876 M334.900 209.065 C 334.116 209.381,334.315 210.000,335.200 210.000 C 335.644 210.000,336.000 209.733,336.000 209.400 C 336.000 208.784,335.770 208.714,334.900 209.065 M86.250 210.185 C 86.476 210.776,87.613 211.600,88.202 211.600 C 89.100 211.600,88.064 209.784,87.102 209.674 C 86.236 209.574,86.056 209.682,86.250 210.185 M332.800 209.902 C 332.800 210.069,332.260 210.444,331.600 210.736 C 330.940 211.028,330.400 211.572,330.400 211.945 C 330.400 212.318,330.040 212.883,329.600 213.200 C 329.160 213.517,328.800 214.086,328.800 214.465 C 328.800 214.843,328.620 215.264,328.400 215.400 C 328.175 215.539,328.000 217.471,328.000 219.824 C 328.000 222.341,328.159 224.000,328.400 224.000 C 328.620 224.000,328.800 224.274,328.800 224.609 C 328.800 225.656,333.060 229.600,334.191 229.600 C 334.746 229.600,335.200 229.780,335.200 230.000 C 335.200 230.260,341.067 230.400,352.000 230.400 C 362.933 230.400,368.800 230.260,368.800 230.000 C 368.800 229.780,369.520 229.600,370.400 229.600 C 371.733 229.600,372.000 229.467,372.000 228.800 C 372.000 228.133,372.267 228.000,373.600 228.000 L 375.200 228.000 375.200 226.200 C 375.200 224.009,374.924 223.970,373.167 225.910 C 370.522 228.831,370.737 228.801,352.486 228.791 C 337.488 228.783,336.073 228.724,334.600 228.042 C 330.502 226.144,327.866 220.517,329.482 217.117 C 329.722 216.613,330.195 215.570,330.533 214.800 C 330.871 214.030,331.789 212.780,332.574 212.022 C 334.075 210.571,334.406 209.600,333.400 209.600 C 333.070 209.600,332.800 209.736,332.800 209.902 M373.200 211.738 C 373.200 212.278,374.429 213.600,374.931 213.600 C 375.079 213.600,375.200 213.060,375.200 212.400 C 375.200 211.387,375.044 211.200,374.200 211.200 C 373.629 211.200,373.200 211.431,373.200 211.738 M89.103 212.230 C 88.956 212.377,89.278 213.370,89.818 214.435 C 90.358 215.501,90.800 216.649,90.800 216.987 C 90.800 217.324,90.988 217.600,91.218 217.600 C 92.279 217.600,91.465 212.208,90.385 212.082 C 89.827 212.017,89.250 212.083,89.103 212.230 M272.614 215.093 C 271.238 217.118,271.312 217.600,273.000 217.600 L 274.400 217.600 274.400 215.600 C 274.400 213.212,273.975 213.091,272.614 215.093 M375.848 216.322 C 375.739 216.499,375.782 217.264,375.944 218.022 C 376.106 218.780,376.116 219.940,375.967 220.600 C 375.421 223.009,375.496 223.200,377.000 223.200 L 378.400 223.200 378.400 219.600 L 378.400 216.000 377.224 216.000 C 376.577 216.000,375.958 216.145,375.848 216.322 M269.453 219.991 C 268.075 222.073,268.122 222.400,269.800 222.400 L 271.200 222.400 271.200 220.400 C 271.200 217.984,270.838 217.899,269.453 219.991 M90.574 222.100 C 90.421 222.595,89.959 223.478,89.548 224.062 C 88.379 225.721,88.569 226.400,90.200 226.400 L 91.600 226.400 91.600 223.800 C 91.600 221.209,91.106 220.390,90.574 222.100 M266.500 224.599 C 265.253 226.525,265.331 227.200,266.800 227.200 C 267.973 227.200,268.000 227.156,268.000 225.200 C 268.000 222.840,267.714 222.725,266.500 224.599 M86.700 227.246 C 85.227 228.345,85.314 228.800,87.000 228.800 C 88.289 228.800,88.400 228.705,88.400 227.600 C 88.400 226.192,88.176 226.145,86.700 227.246 M263.233 229.747 C 262.111 231.562,262.182 232.000,263.600 232.000 C 264.756 232.000,264.800 231.933,264.800 230.200 C 264.800 228.053,264.359 227.925,263.233 229.747 M259.900 234.943 C 258.510 237.144,258.517 237.200,260.182 237.200 C 261.444 237.200,261.586 237.079,261.826 235.803 C 262.375 232.876,261.463 232.468,259.900 234.943 M193.487 236.646 C 192.968 237.166,193.187 238.400,193.800 238.400 C 194.451 238.400,194.494 238.182,194.059 237.079 C 193.903 236.683,193.646 236.488,193.487 236.646 M257.014 239.493 C 255.638 241.518,255.712 242.000,257.400 242.000 L 258.800 242.000 258.800 240.000 C 258.800 237.612,258.375 237.491,257.014 239.493 M192.400 243.167 C 192.400 244.020,192.593 244.400,193.027 244.400 C 193.471 244.400,193.616 244.089,193.527 243.331 C 193.342 241.774,192.400 241.636,192.400 243.167 M253.700 244.599 C 252.484 246.477,252.558 246.874,254.100 246.725 C 255.320 246.608,255.408 246.496,255.523 244.900 C 255.677 242.770,254.962 242.652,253.700 244.599 M250.796 249.300 C 249.700 251.097,249.788 251.600,251.200 251.600 C 252.356 251.600,252.400 251.533,252.400 249.800 C 252.400 247.672,251.886 247.512,250.796 249.300 M191.870 248.962 C 191.414 250.150,191.569 251.200,192.200 251.200 C 192.838 251.200,192.939 250.297,192.442 249.029 C 192.162 248.314,192.120 248.309,191.870 248.962 M247.453 254.391 C 246.206 256.276,246.112 257.200,247.167 257.200 C 248.851 257.200,249.200 256.780,249.200 254.757 C 249.200 252.384,248.833 252.307,247.453 254.391 M190.800 256.400 C 190.800 256.844,191.067 257.200,191.400 257.200 C 191.733 257.200,192.000 256.844,192.000 256.400 C 192.000 255.956,191.733 255.600,191.400 255.600 C 191.067 255.600,190.800 255.956,190.800 256.400 M244.253 259.591 C 242.923 261.601,242.923 261.600,244.600 261.600 C 245.993 261.600,246.000 261.590,246.000 259.800 C 246.000 257.584,245.612 257.538,244.253 259.591 M190.273 260.260 C 189.847 260.686,189.952 262.000,190.413 262.000 C 191.004 262.000,191.376 260.816,190.926 260.366 C 190.718 260.158,190.424 260.110,190.273 260.260 M241.300 264.199 C 240.113 266.031,240.163 266.400,241.600 266.400 C 242.756 266.400,242.800 266.333,242.800 264.600 C 242.800 262.441,242.492 262.358,241.300 264.199 M189.411 265.183 C 189.276 265.400,189.209 266.296,189.260 267.174 C 189.379 269.180,190.400 268.643,190.400 266.575 C 190.400 265.227,189.856 264.462,189.411 265.183 M238.100 268.999 C 236.913 270.831,236.963 271.200,238.400 271.200 C 239.556 271.200,239.600 271.133,239.600 269.400 C 239.600 267.241,239.292 267.158,238.100 268.999 M188.642 271.835 C 188.187 273.019,188.380 274.400,189.000 274.400 C 189.417 274.400,189.600 273.980,189.600 273.024 C 189.600 271.528,189.031 270.822,188.642 271.835 M235.196 273.700 C 234.093 275.508,234.171 276.079,235.500 275.927 C 236.484 275.813,236.613 275.621,236.723 274.100 C 236.872 272.047,236.296 271.896,235.196 273.700 M187.843 278.233 C 187.459 279.234,187.554 279.600,188.200 279.600 C 188.573 279.600,188.800 279.222,188.800 278.600 C 188.800 277.483,188.216 277.259,187.843 278.233 M231.568 279.379 C 230.490 281.410,230.639 281.787,232.371 281.406 C 233.517 281.155,233.600 281.017,233.600 279.368 C 233.600 277.041,232.806 277.045,231.568 279.379 M187.467 282.667 C 187.045 283.088,187.156 285.200,187.600 285.200 C 187.820 285.200,188.000 284.570,188.000 283.800 C 188.000 282.361,187.927 282.206,187.467 282.667 M228.653 283.991 C 227.323 286.001,227.323 286.000,229.000 286.000 C 230.393 286.000,230.400 285.990,230.400 284.200 C 230.400 281.984,230.012 281.938,228.653 283.991 M225.500 288.835 C 224.541 290.521,224.612 290.800,226.000 290.800 C 227.133 290.800,227.200 290.711,227.200 289.200 C 227.200 287.253,226.487 287.100,225.500 288.835 M186.400 290.800 C 186.400 291.680,186.580 292.400,186.800 292.400 C 187.020 292.400,187.200 291.680,187.200 290.800 C 187.200 289.920,187.020 289.200,186.800 289.200 C 186.580 289.200,186.400 289.920,186.400 290.800 M222.433 293.747 C 221.353 295.494,221.374 295.600,222.800 295.600 C 223.933 295.600,224.000 295.511,224.000 294.000 C 224.000 292.046,223.531 291.970,222.433 293.747 M185.867 296.267 C 185.445 296.688,185.556 298.800,186.000 298.800 C 186.220 298.800,186.400 298.170,186.400 297.400 C 186.400 295.961,186.327 295.806,185.867 296.267 M219.410 298.380 C 218.567 300.012,218.641 300.400,219.800 300.400 C 220.700 300.400,220.800 300.240,220.800 298.800 C 220.800 296.906,220.257 296.742,219.410 298.380 M116.800 299.200 C 116.800 299.420,116.242 299.600,115.560 299.600 C 114.699 299.600,113.979 299.966,113.200 300.800 C 112.583 301.460,111.886 302.000,111.651 302.000 C 111.227 302.000,105.194 307.992,98.200 315.359 C 96.220 317.445,94.393 319.162,94.140 319.176 C 93.489 319.210,90.800 321.973,90.800 322.607 C 90.800 322.896,90.575 323.216,90.300 323.317 C 89.930 323.452,89.916 323.624,90.247 323.977 C 90.746 324.509,113.203 302.669,113.201 301.653 C 113.200 301.298,113.489 301.182,114.024 301.322 C 114.542 301.458,114.934 301.315,115.079 300.939 C 115.260 300.467,115.720 300.396,117.254 300.607 C 119.467 300.912,123.200 300.507,123.200 299.962 C 123.200 299.763,122.480 299.600,121.600 299.600 C 120.720 299.600,120.000 299.420,120.000 299.200 C 120.000 298.980,119.280 298.800,118.400 298.800 C 117.520 298.800,116.800 298.980,116.800 299.200 M299.400 299.200 C 299.264 299.420,298.633 299.600,297.997 299.600 C 296.650 299.600,294.571 301.306,295.025 302.040 C 295.250 302.405,295.429 302.385,295.761 301.961 C 296.667 300.804,298.189 300.413,301.200 300.563 C 304.486 300.727,306.116 300.511,305.774 299.957 C 305.652 299.761,304.933 299.600,304.176 299.600 C 303.419 299.600,302.800 299.420,302.800 299.200 C 302.800 298.980,302.091 298.800,301.224 298.800 C 300.357 298.800,299.536 298.980,299.400 299.200 M123.600 300.914 C 123.600 301.369,125.543 302.800,126.162 302.800 C 126.755 302.800,126.319 301.185,125.626 300.814 C 124.566 300.247,123.600 300.294,123.600 300.914 M307.700 302.500 C 307.952 303.257,309.200 303.364,309.200 302.629 C 309.200 302.258,308.858 302.000,308.367 302.000 C 307.878 302.000,307.602 302.207,307.700 302.500 M216.033 303.747 C 215.058 305.324,214.979 306.000,215.767 306.000 C 217.149 306.000,217.600 305.497,217.600 303.957 C 217.600 302.045,217.124 301.981,216.033 303.747 M184.800 303.800 C 184.800 304.350,184.980 304.800,185.200 304.800 C 185.420 304.800,185.600 304.350,185.600 303.800 C 185.600 303.250,185.420 302.800,185.200 302.800 C 184.980 302.800,184.800 303.250,184.800 303.800 M291.700 304.610 C 291.205 305.139,290.800 305.848,290.800 306.186 C 290.800 306.524,290.620 306.800,290.400 306.800 C 290.165 306.800,290.000 308.200,290.000 310.200 C 290.000 312.200,290.165 313.600,290.400 313.600 C 290.620 313.600,290.800 314.100,290.800 314.712 C 290.800 315.365,291.130 316.061,291.600 316.400 C 292.040 316.717,292.400 317.210,292.400 317.495 C 292.400 318.172,298.230 324.000,298.907 324.000 C 299.193 324.000,299.728 324.509,300.096 325.131 C 301.219 327.032,312.386 338.789,313.087 338.809 C 313.259 338.814,313.850 339.170,314.400 339.600 C 314.950 340.030,315.974 340.386,316.676 340.391 C 317.378 340.396,318.064 340.580,318.200 340.800 C 318.336 341.020,319.157 341.200,320.024 341.200 C 320.891 341.200,321.600 341.020,321.600 340.800 C 321.600 340.580,322.320 340.400,323.200 340.400 C 324.080 340.400,324.800 340.231,324.800 340.024 C 324.800 339.817,325.475 339.592,326.300 339.524 C 327.719 339.407,327.807 339.319,327.924 337.900 C 328.053 336.344,327.638 335.990,326.829 336.966 C 325.169 338.965,319.325 339.880,316.296 338.614 C 313.651 337.509,293.362 317.276,291.714 314.100 C 291.121 312.955,290.928 307.240,291.470 306.842 C 291.839 306.571,293.200 304.209,293.200 303.838 C 293.200 303.354,292.575 303.676,291.700 304.610 M127.606 304.500 C 127.609 304.555,127.860 305.314,128.164 306.186 C 128.948 308.438,129.600 308.460,129.600 306.233 C 129.600 304.544,129.521 304.400,128.600 304.400 C 128.050 304.400,127.603 304.445,127.606 304.500 M310.000 304.707 C 310.000 304.906,310.552 305.560,311.227 306.161 L 312.455 307.255 312.327 305.927 C 312.208 304.682,310.000 303.525,310.000 304.707 M212.900 308.599 C 211.757 310.365,211.762 310.400,213.200 310.400 C 214.333 310.400,214.400 310.311,214.400 308.800 C 214.400 306.841,214.068 306.796,212.900 308.599 M313.600 307.720 C 313.600 308.296,314.382 309.200,314.880 309.200 C 315.056 309.200,315.200 308.750,315.200 308.200 C 315.200 307.467,314.987 307.200,314.400 307.200 C 313.960 307.200,313.600 307.434,313.600 307.720 M184.000 308.800 C 184.000 309.460,184.180 310.000,184.400 310.000 C 184.620 310.000,184.800 309.460,184.800 308.800 C 184.800 308.140,184.620 307.600,184.400 307.600 C 184.180 307.600,184.000 308.140,184.000 308.800 M316.400 310.920 C 316.400 311.206,316.616 311.656,316.880 311.920 C 317.674 312.714,318.400 312.465,318.400 311.400 C 318.400 310.600,318.200 310.400,317.400 310.400 C 316.846 310.400,316.400 310.632,316.400 310.920 M128.898 312.100 C 128.678 312.375,128.362 313.050,128.195 313.600 C 128.029 314.150,127.646 314.955,127.346 315.389 C 126.527 316.572,126.665 316.800,128.200 316.800 L 129.600 316.800 129.600 314.200 C 129.600 311.466,129.543 311.294,128.898 312.100 M210.008 313.280 C 208.946 315.021,208.983 315.200,210.400 315.200 C 211.501 315.200,211.600 315.086,211.600 313.824 C 211.600 311.926,210.966 311.709,210.008 313.280 M183.200 314.600 C 183.200 315.590,183.380 316.400,183.600 316.400 C 183.820 316.400,184.000 315.590,184.000 314.600 C 184.000 313.610,183.820 312.800,183.600 312.800 C 183.380 312.800,183.200 313.610,183.200 314.600 M318.813 313.100 C 318.834 313.597,320.731 315.600,321.181 315.600 C 321.411 315.600,321.600 314.970,321.600 314.200 C 321.600 312.867,321.533 312.800,320.200 312.800 C 319.430 312.800,318.806 312.935,318.813 313.100 M322.800 317.229 C 322.800 317.464,323.057 317.914,323.371 318.229 C 324.232 319.089,324.800 318.918,324.800 317.800 C 324.800 317.000,324.600 316.800,323.800 316.800 C 323.250 316.800,322.800 316.993,322.800 317.229 M206.686 318.362 C 205.773 319.907,205.803 320.000,207.200 320.000 C 208.305 320.000,208.400 319.889,208.400 318.600 C 208.400 316.868,207.632 316.761,206.686 318.362 M124.662 318.331 C 123.673 319.425,123.858 320.000,125.200 320.000 C 126.267 320.000,126.400 319.867,126.400 318.800 C 126.400 317.421,125.665 317.223,124.662 318.331 M326.000 320.429 C 326.000 320.664,326.257 321.114,326.571 321.429 C 327.432 322.289,328.000 322.118,328.000 321.000 C 328.000 320.200,327.800 320.000,327.000 320.000 C 326.450 320.000,326.000 320.193,326.000 320.429 M121.089 322.041 C 120.490 322.724,120.000 323.444,120.000 323.641 C 120.000 323.839,119.764 324.000,119.475 324.000 C 118.829 324.000,116.800 326.065,116.800 326.722 C 116.800 326.985,116.564 327.200,116.275 327.200 C 115.373 327.200,113.386 329.546,113.874 330.034 C 114.901 331.061,116.593 330.283,116.723 328.723 C 116.838 327.335,116.935 327.238,118.323 327.123 C 119.711 327.007,119.807 326.911,119.923 325.523 C 120.038 324.135,120.135 324.038,121.523 323.923 C 122.915 323.807,123.007 323.714,123.124 322.300 C 123.280 320.416,122.592 320.329,121.089 322.041 M183.200 323.000 C 183.200 323.550,183.380 324.000,183.600 324.000 C 183.820 324.000,184.000 323.550,184.000 323.000 C 184.000 322.450,183.820 322.000,183.600 322.000 C 183.380 322.000,183.200 322.450,183.200 323.000 M203.414 323.493 C 202.166 325.330,202.154 325.600,203.320 325.600 C 204.598 325.600,205.200 324.869,205.200 323.320 C 205.200 321.599,204.666 321.651,203.414 323.493 M328.800 323.350 C 328.800 323.432,329.070 324.265,329.400 325.200 C 330.251 327.613,330.156 331.417,329.191 333.544 C 328.195 335.740,328.153 335.600,329.800 335.600 L 331.200 335.600 331.200 330.033 C 331.200 326.971,331.091 324.181,330.957 323.833 C 330.756 323.308,328.800 322.870,328.800 323.350 M184.000 324.988 C 184.000 327.278,187.624 330.800,189.980 330.800 C 190.431 330.800,190.800 330.980,190.800 331.200 C 190.800 331.729,194.246 331.710,196.780 331.167 C 198.001 330.905,198.800 330.519,198.800 330.191 C 198.800 329.853,199.365 329.602,200.300 329.524 C 201.719 329.407,201.807 329.319,201.924 327.900 C 202.076 326.071,202.061 326.070,199.694 327.771 C 197.043 329.675,194.720 330.206,191.743 329.588 C 188.740 328.965,184.800 326.245,184.800 324.795 C 184.800 324.578,184.620 324.400,184.400 324.400 C 184.180 324.400,184.000 324.665,184.000 324.988 M89.200 326.367 C 89.200 327.499,89.633 328.427,90.042 328.174 C 90.667 327.787,90.462 325.600,89.800 325.600 C 89.470 325.600,89.200 325.945,89.200 326.367 M110.500 332.536 C 108.095 334.939,107.900 335.600,109.600 335.600 C 110.667 335.600,110.800 335.467,110.800 334.400 C 110.800 333.295,110.911 333.200,112.200 333.200 C 113.533 333.200,113.600 333.133,113.600 331.800 C 113.600 329.893,113.004 330.035,110.500 332.536 M89.200 332.600 C 89.200 333.370,89.380 334.000,89.600 334.000 C 89.820 334.000,90.000 334.360,90.000 334.800 C 90.000 335.240,90.180 335.600,90.400 335.600 C 90.620 335.600,90.800 335.876,90.800 336.213 C 90.800 337.009,93.391 339.600,94.187 339.600 C 94.524 339.600,94.800 339.780,94.800 340.000 C 94.800 340.220,95.340 340.400,96.000 340.400 C 96.660 340.400,97.200 340.580,97.200 340.800 C 97.200 341.020,98.100 341.200,99.200 341.200 C 100.300 341.200,101.200 341.020,101.200 340.800 C 101.200 340.580,101.920 340.400,102.800 340.400 C 104.093 340.400,104.400 340.257,104.400 339.656 C 104.400 338.970,104.108 338.926,100.700 339.099 C 97.376 339.268,96.819 339.192,95.215 338.344 C 93.445 337.407,90.270 333.773,90.548 333.000 C 90.742 332.461,90.067 331.200,89.586 331.200 C 89.374 331.200,89.200 331.830,89.200 332.600 M105.670 337.326 C 104.489 338.583,104.567 338.800,106.200 338.800 C 107.489 338.800,107.600 338.705,107.600 337.600 C 107.600 336.145,106.876 336.042,105.670 337.326 M209.600 336.800 C 209.270 337.013,208.413 337.191,207.695 337.194 C 206.977 337.197,206.077 337.353,205.695 337.539 C 203.234 338.742,202.519 339.289,201.858 340.472 C 201.450 341.202,200.955 341.860,200.758 341.933 C 200.561 342.007,200.400 342.412,200.400 342.833 C 200.400 343.255,200.220 343.600,200.000 343.600 C 199.780 343.600,199.600 344.050,199.600 344.600 C 199.600 345.241,199.825 345.600,200.227 345.600 C 200.672 345.600,200.780 345.368,200.600 344.800 C 200.415 344.216,200.528 344.000,201.020 344.000 C 201.496 344.000,201.632 343.766,201.484 343.200 C 201.369 342.760,201.393 342.399,201.537 342.397 C 201.682 342.396,202.520 341.684,203.400 340.817 C 204.457 339.774,205.373 339.233,206.100 339.220 C 206.705 339.209,207.200 339.020,207.200 338.800 C 207.200 338.565,208.592 338.400,210.576 338.400 C 212.433 338.400,214.064 338.580,214.200 338.800 C 214.336 339.020,214.775 339.200,215.175 339.200 C 215.575 339.200,216.126 339.470,216.400 339.800 C 217.171 340.729,217.600 340.515,217.600 339.200 C 217.600 338.067,217.511 338.000,216.000 338.000 C 215.120 338.000,214.400 337.820,214.400 337.600 C 214.400 337.380,213.781 337.200,213.024 337.200 C 212.267 337.200,211.536 337.020,211.400 336.800 C 211.089 336.297,210.378 336.297,209.600 336.800 M218.806 342.300 C 218.809 342.465,219.071 343.320,219.388 344.200 C 219.727 345.138,219.972 347.330,219.982 349.500 C 219.993 351.688,220.163 353.200,220.400 353.200 C 220.648 353.200,220.800 351.067,220.800 347.600 L 220.800 342.000 219.800 342.000 C 219.250 342.000,218.803 342.135,218.806 342.300 M220.300 354.231 C 220.135 354.397,220.000 356.069,220.000 357.947 C 220.000 360.316,220.128 361.232,220.417 360.943 C 220.660 360.700,220.785 359.146,220.717 357.227 C 220.653 355.413,220.465 354.065,220.300 354.231 M220.000 365.576 C 220.000 367.725,220.163 369.200,220.400 369.200 C 220.635 369.200,220.800 367.808,220.800 365.824 C 220.800 363.967,220.620 362.336,220.400 362.200 C 220.145 362.042,220.000 363.263,220.000 365.576 M220.000 373.385 C 220.000 375.827,219.777 377.336,219.200 378.800 C 218.199 381.340,218.176 381.200,219.600 381.200 L 220.800 381.200 220.800 375.600 C 220.800 372.133,220.648 370.000,220.400 370.000 C 220.165 370.000,220.000 371.395,220.000 373.385 M199.600 378.567 C 199.600 379.135,199.780 379.600,200.000 379.600 C 200.220 379.600,200.400 379.853,200.400 380.162 C 200.400 381.245,202.192 384.068,203.291 384.717 C 203.901 385.078,204.400 385.514,204.400 385.686 C 204.400 385.859,205.120 386.000,206.000 386.000 C 206.880 386.000,207.600 386.180,207.600 386.400 C 207.600 386.620,208.500 386.800,209.600 386.800 C 210.700 386.800,211.600 386.620,211.600 386.400 C 211.600 386.180,212.230 386.000,213.000 386.000 C 214.144 386.000,214.400 385.850,214.400 385.182 C 214.400 384.448,214.245 384.396,212.900 384.673 C 208.620 385.557,201.600 382.751,201.600 380.156 C 201.600 379.850,201.433 379.600,201.228 379.600 C 201.023 379.600,200.798 379.209,200.728 378.731 C 200.539 377.451,199.600 377.314,199.600 378.567 M215.700 383.177 C 214.479 384.196,214.562 384.400,216.200 384.400 C 217.427 384.400,217.600 384.276,217.600 383.400 C 217.600 382.218,216.943 382.141,215.700 383.177 " stroke="none" fill="#f7e9be" fill-rule="evenodd"></path></g></svg>